<svg width="384" height="454" viewBox="0 0 384 454" fill="none" xmlns="http://www.w3.org/2000/svg">
    <rect width="384" height="454" fill="#EFE6E1"/>
    <g clip-path="url(#clip0)">
        <path d="M259.347 50L114.76 177.11V50H79.8698V297.37H114.76V215.074L163.135 173.771L263.534 297.37H304.527L186.728 152.879L304.212 50H259.347Z" fill="#393939"/>
        <path d="M109.447 342.738L85.5853 363.701V342.738H79.824V383.559H85.5853V369.962L93.5782 363.148L110.144 383.559H116.898L97.4708 359.707L116.853 342.738H109.447Z" fill="#393939"/>
        <path d="M142.989 368.001C142.245 368.45 141.142 368.861 139.657 369.172C138.217 369.516 136.258 369.825 133.827 370.101C129.888 370.549 127.388 371.099 126.308 371.786C125.249 372.476 124.711 373.542 124.711 374.987C124.711 376.435 125.296 377.604 126.465 378.431C127.636 379.257 129.257 379.668 131.351 379.668C134.706 379.668 137.473 378.981 139.679 377.604C141.886 376.227 142.989 374.54 142.989 372.544V368.001ZM143.168 378.878C141.795 380.634 140.04 381.976 137.856 382.906C135.695 383.833 133.218 384.317 130.428 384.317C126.713 384.317 123.832 383.49 121.784 381.906C119.758 380.289 118.722 378.052 118.722 375.193C118.722 373.647 119.083 372.236 119.825 370.994C120.546 369.791 121.625 368.722 123.088 367.863C123.81 367.416 124.846 367.037 126.195 366.763C127.545 366.45 129.753 366.142 132.815 365.797C133.331 365.765 134.119 365.66 135.133 365.557C140.287 365.076 142.876 363.733 142.876 361.598C142.876 360.016 142.269 358.845 141.029 358.123C139.792 357.399 137.788 357.022 135.02 357.022C131.867 357.022 129.573 357.504 128.132 358.433C126.691 359.363 125.88 360.876 125.745 362.977H120.05C120.23 359.431 121.536 356.78 123.989 354.956C126.42 353.168 129.976 352.271 134.637 352.271C139.703 352.271 143.259 353.029 145.351 354.543C147.446 356.057 148.482 358.673 148.482 362.356V374.576C148.482 376.262 148.684 377.433 149.089 378.052C149.472 378.707 150.191 379.015 151.205 379.015C151.407 379.015 151.655 379.015 151.925 378.981C152.195 378.947 152.465 378.912 152.758 378.878V383.283C152.06 383.388 151.34 383.456 150.621 383.49C149.899 383.525 149.202 383.559 148.548 383.559C146.95 383.559 145.712 383.18 144.857 382.458C144.001 381.7 143.438 380.495 143.168 378.878Z" fill="#393939"/>
        <path d="M157.395 383.558H162.866V342.737H157.395V383.558Z" fill="#393939"/>
        <path d="M170.497 383.558H175.966V342.737H170.497V383.558Z" fill="#393939"/>
        <path d="M183.622 353.304H189.091V383.558H183.622V353.304ZM189.091 349.345H183.622V342.737H189.091" fill="#393939"/>
        <path d="M200.616 368.449C200.616 371.854 201.63 374.539 203.631 376.537C205.659 378.498 208.383 379.496 211.848 379.496C215.315 379.496 218.041 378.498 220.044 376.537C222.07 374.539 223.06 371.854 223.06 368.449C223.06 365.042 222.07 362.321 220.044 360.36C218.041 358.364 215.315 357.4 211.848 357.4C208.383 357.4 205.659 358.364 203.631 360.36C201.63 362.357 200.616 365.042 200.616 368.449ZM194.899 368.449C194.899 363.561 196.429 359.638 199.513 356.711C202.595 353.752 206.695 352.272 211.848 352.272C217.005 352.272 221.123 353.752 224.163 356.677C227.223 359.602 228.755 363.526 228.755 368.449C228.755 373.37 227.223 377.295 224.163 380.22C221.123 383.181 217.005 384.624 211.848 384.624C206.695 384.624 202.595 383.181 199.513 380.22C196.429 377.295 194.899 373.37 194.899 368.449Z" fill="#393939"/>
        <path d="M239.876 368.449C239.876 371.822 240.866 374.471 242.869 376.398C244.851 378.325 247.552 379.29 250.973 379.29C254.394 379.29 257.095 378.325 259.077 376.434C261.058 374.507 262.048 371.854 262.048 368.449C262.048 365.075 261.058 362.426 259.077 360.499C257.095 358.572 254.394 357.606 250.973 357.606C247.552 357.606 244.851 358.572 242.869 360.531C240.866 362.458 239.876 365.111 239.876 368.449ZM234.405 394.297V353.304H239.876V357.814C241.359 356.058 243.049 354.749 244.984 353.889C246.921 353.03 249.127 352.58 251.582 352.58C256.376 352.58 260.292 354.06 263.308 356.985C266.302 359.946 267.809 363.768 267.809 368.449C267.809 373.164 266.302 376.984 263.286 379.911C260.27 382.836 256.353 384.316 251.535 384.316C249.104 384.316 246.943 383.866 245.052 383.042C243.162 382.181 241.45 380.873 239.876 379.083V394.297" fill="#393939"/>
        <path d="M285.392 349.242L290.434 340.809H297.322L289.398 349.242H285.392ZM277.804 365.627H299.124C298.697 363.079 297.548 361.047 295.657 359.569C293.766 358.122 291.381 357.4 288.499 357.4C285.616 357.4 283.231 358.122 281.34 359.569C279.449 361.047 278.256 363.079 277.804 365.627ZM277.647 369.517V369.757C277.647 372.614 278.639 374.954 280.665 376.778C282.667 378.601 285.279 379.498 288.499 379.498C290.885 379.498 292.933 379.016 294.621 378.052C296.31 377.123 297.479 375.78 298.088 374.127H304.502C303.422 377.431 301.464 380.014 298.65 381.872C295.858 383.697 292.462 384.626 288.499 384.626C283.433 384.626 279.427 383.181 276.387 380.219C273.372 377.294 271.864 373.372 271.864 368.449C271.864 363.526 273.372 359.603 276.387 356.676C279.427 353.751 283.433 352.272 288.499 352.272C293.655 352.272 297.683 353.717 300.61 356.573C303.535 359.464 305 363.423 305 368.449V369.517" fill="#393939"/>
    </g>
    <defs>
        <clipPath id="clip0">
            <rect width="340.157" height="340.157" fill="white" transform="translate(22 50)"/>
        </clipPath>
    </defs>
</svg>
